<?xml version="1.0" encoding="UTF-8" standalone="no"?>
<!DOCTYPE svg PUBLIC "-//W3C//DTD SVG 1.1//EN"
 "http://www.w3.org/Graphics/SVG/1.1/DTD/svg11.dtd">
<!-- Generated by graphviz version 2.40.1 (20161225.0304)
 -->
<!-- Title: dependencies Pages: 1 -->
<svg width="922pt" height="211pt"
 viewBox="0.00 0.00 922.00 211.00" xmlns="http://www.w3.org/2000/svg" xmlns:xlink="http://www.w3.org/1999/xlink">
<g id="graph0" class="graph" transform="scale(1 1) rotate(0) translate(4 207)">
<title>dependencies</title>
<polygon fill="#ffffff" stroke="transparent" points="-4,4 -4,-207 918,-207 918,4 -4,4"/>
<text text-anchor="start" x="436.0091" y="-42.4" font-family="sans-serif" font-weight="bold" font-size="14.00" fill="#000000">Legend</text>
<polygon fill="#ffffb3" stroke="transparent" points="223,-10 223,-30 243,-30 243,-10 223,-10"/>
<text text-anchor="start" x="246.629" y="-15.4" font-family="sans-serif" font-size="14.00" fill="#000000"> &#160;Declarations</text>
<polygon fill="#8dd3c7" stroke="transparent" points="336,-10 336,-30 356,-30 356,-10 336,-10"/>
<text text-anchor="start" x="359.7251" y="-15.4" font-family="sans-serif" font-size="14.00" fill="#000000"> &#160;Module</text>
<polygon fill="#80b1d3" stroke="transparent" points="422,-10 422,-30 442,-30 442,-10 422,-10"/>
<text text-anchor="start" x="445.7812" y="-15.4" font-family="sans-serif" font-size="14.00" fill="#000000"> &#160;Bootstrap</text>
<polygon fill="#fdb462" stroke="transparent" points="519,-10 519,-30 539,-30 539,-10 519,-10"/>
<text text-anchor="start" x="542.6732" y="-15.4" font-family="sans-serif" font-size="14.00" fill="#000000"> &#160;Providers</text>
<polygon fill="#fb8072" stroke="transparent" points="615,-10 615,-30 635,-30 635,-10 615,-10"/>
<text text-anchor="start" x="638.7258" y="-15.4" font-family="sans-serif" font-size="14.00" fill="#000000"> &#160;Exports</text>
<g id="clust1" class="cluster">
<title>cluster_TodoModule</title>
<polygon fill="none" stroke="#000000" stroke-dasharray="1,5" points="8,-70 8,-195 906,-195 906,-70 8,-70"/>
</g>
<g id="clust2" class="cluster">
<title>cluster_TodoModule_declarations</title>
<polygon fill="none" stroke="#000000" points="276,-78 276,-130 898,-130 898,-78 276,-78"/>
</g>
<g id="clust8" class="cluster">
<title>cluster_TodoModule_imports</title>
<polygon fill="none" stroke="#000000" points="160,-78 160,-130 268,-130 268,-78 160,-78"/>
</g>
<g id="clust11" class="cluster">
<title>cluster_TodoModule_providers</title>
<polygon fill="none" stroke="#000000" points="16,-78 16,-130 152,-130 152,-78 16,-78"/>
</g>
<!-- TodoComponent -->
<g id="node1" class="node">
<title>TodoComponent</title>
<polygon fill="#ffffb3" stroke="#000000" points="890.3851,-122 779.6149,-122 779.6149,-86 890.3851,-86 890.3851,-122"/>
<text text-anchor="middle" x="835" y="-99.8" font-family="Times,serif" font-size="14.00" fill="#000000">TodoComponent</text>
</g>
<!-- TodoModule -->
<g id="node6" class="node">
<title>TodoModule</title>
<polygon fill="#8dd3c7" stroke="#000000" points="506.6025,-187 503.6025,-191 482.6025,-191 479.6025,-187 417.3975,-187 417.3975,-151 506.6025,-151 506.6025,-187"/>
<text text-anchor="middle" x="462" y="-164.8" font-family="Times,serif" font-size="14.00" fill="#000000">TodoModule</text>
</g>
<!-- TodoComponent&#45;&gt;TodoModule -->
<g id="edge1" class="edge">
<title>TodoComponent&#45;&gt;TodoModule</title>
<path fill="none" stroke="#000000" d="M835,-122.2921C835,-144.2057 835,-178 835,-178 835,-178 516.622,-178 516.622,-178"/>
<polygon fill="#000000" stroke="#000000" points="516.6221,-174.5001 506.622,-178 516.622,-181.5001 516.6221,-174.5001"/>
</g>
<!-- HeaderComponent -->
<g id="node2" class="node">
<title>HeaderComponent</title>
<polygon fill="#ffffb3" stroke="#000000" points="761.7437,-122 640.2563,-122 640.2563,-86 761.7437,-86 761.7437,-122"/>
<text text-anchor="middle" x="701" y="-99.8" font-family="Times,serif" font-size="14.00" fill="#000000">HeaderComponent</text>
</g>
<!-- HeaderComponent&#45;&gt;TodoModule -->
<g id="edge2" class="edge">
<title>HeaderComponent&#45;&gt;TodoModule</title>
<path fill="none" stroke="#000000" d="M701,-122.1061C701,-141.3391 701,-169 701,-169 701,-169 516.6737,-169 516.6737,-169"/>
<polygon fill="#000000" stroke="#000000" points="516.6737,-165.5001 506.6737,-169 516.6737,-172.5001 516.6737,-165.5001"/>
</g>
<!-- ListComponent -->
<g id="node3" class="node">
<title>ListComponent</title>
<polygon fill="#ffffb3" stroke="#000000" points="622.6109,-122 519.3891,-122 519.3891,-86 622.6109,-86 622.6109,-122"/>
<text text-anchor="middle" x="571" y="-99.8" font-family="Times,serif" font-size="14.00" fill="#000000">ListComponent</text>
</g>
<!-- ListComponent&#45;&gt;TodoModule -->
<g id="edge3" class="edge">
<title>ListComponent&#45;&gt;TodoModule</title>
<path fill="none" stroke="#000000" d="M571,-122.027C571,-138.3976 571,-160 571,-160 571,-160 516.649,-160 516.649,-160"/>
<polygon fill="#000000" stroke="#000000" points="516.649,-156.5001 506.649,-160 516.6489,-163.5001 516.649,-156.5001"/>
</g>
<!-- SearchPipe -->
<g id="node4" class="node">
<title>SearchPipe</title>
<polygon fill="#ffffb3" stroke="#000000" points="501.4748,-122 422.5252,-122 422.5252,-86 501.4748,-86 501.4748,-122"/>
<text text-anchor="middle" x="462" y="-99.8" font-family="Times,serif" font-size="14.00" fill="#000000">SearchPipe</text>
</g>
<!-- SearchPipe&#45;&gt;TodoModule -->
<g id="edge4" class="edge">
<title>SearchPipe&#45;&gt;TodoModule</title>
<path fill="none" stroke="#000000" d="M462,-122.1061C462,-122.1061 462,-140.991 462,-140.991"/>
<polygon fill="#000000" stroke="#000000" points="458.5001,-140.9909 462,-150.991 465.5001,-140.991 458.5001,-140.9909"/>
</g>
<!-- DetailsComponent -->
<g id="node5" class="node">
<title>DetailsComponent</title>
<polygon fill="#ffffb3" stroke="#000000" points="404.4846,-122 283.5154,-122 283.5154,-86 404.4846,-86 404.4846,-122"/>
<text text-anchor="middle" x="344" y="-99.8" font-family="Times,serif" font-size="14.00" fill="#000000">DetailsComponent</text>
</g>
<!-- DetailsComponent&#45;&gt;TodoModule -->
<g id="edge5" class="edge">
<title>DetailsComponent&#45;&gt;TodoModule</title>
<path fill="none" stroke="#000000" d="M344,-122.027C344,-138.3976 344,-160 344,-160 344,-160 407.3893,-160 407.3893,-160"/>
<polygon fill="#000000" stroke="#000000" points="407.3893,-163.5001 417.3893,-160 407.3892,-156.5001 407.3893,-163.5001"/>
</g>
<!-- ShareModule -->
<g id="node7" class="node">
<title>ShareModule</title>
<polygon fill="#8dd3c7" stroke="#000000" points="259.9232,-122 256.9232,-126 235.9232,-126 232.9232,-122 168.0768,-122 168.0768,-86 259.9232,-86 259.9232,-122"/>
<text text-anchor="middle" x="214" y="-99.8" font-family="Times,serif" font-size="14.00" fill="#000000">ShareModule</text>
</g>
<!-- ShareModule&#45;&gt;TodoModule -->
<g id="edge6" class="edge">
<title>ShareModule&#45;&gt;TodoModule</title>
<path fill="none" stroke="#000000" d="M214,-122.1061C214,-141.3391 214,-169 214,-169 214,-169 407.3761,-169 407.3761,-169"/>
<polygon fill="#000000" stroke="#000000" points="407.3762,-172.5001 417.3761,-169 407.3761,-165.5001 407.3762,-172.5001"/>
</g>
<!-- TodoService -->
<g id="node8" class="node">
<title>TodoService</title>
<ellipse fill="#fdb462" stroke="#000000" cx="84" cy="-104" rx="60.2537" ry="18"/>
<text text-anchor="middle" x="84" y="-99.8" font-family="Times,serif" font-size="14.00" fill="#000000">TodoService</text>
</g>
<!-- TodoService&#45;&gt;TodoModule -->
<g id="edge7" class="edge">
<title>TodoService&#45;&gt;TodoModule</title>
<path fill="none" stroke="#000000" d="M84,-122.2921C84,-144.2057 84,-178 84,-178 84,-178 407.1541,-178 407.1541,-178"/>
<polygon fill="#000000" stroke="#000000" points="407.1541,-181.5001 417.1541,-178 407.154,-174.5001 407.1541,-181.5001"/>
</g>
</g>
</svg>
