<?xml version="1.0" encoding="UTF-8" standalone="no"?>
<!DOCTYPE svg PUBLIC "-//W3C//DTD SVG 1.1//EN"
 "http://www.w3.org/Graphics/SVG/1.1/DTD/svg11.dtd">
<!-- Generated by graphviz version 2.40.1 (20161225.0304)
 -->
<!-- Title: dependencies Pages: 1 -->
<svg width="1220pt" height="284pt"
 viewBox="0.00 0.00 1220.00 284.00" xmlns="http://www.w3.org/2000/svg" xmlns:xlink="http://www.w3.org/1999/xlink">
<g id="graph0" class="graph" transform="scale(1 1) rotate(0) translate(4 280)">
<title>dependencies</title>
<polygon fill="#ffffff" stroke="transparent" points="-4,4 -4,-280 1216,-280 1216,4 -4,4"/>
<text text-anchor="start" x="585.0091" y="-42.4" font-family="sans-serif" font-weight="bold" font-size="14.00" fill="#000000">Legend</text>
<polygon fill="#ffffb3" stroke="transparent" points="372,-10 372,-30 392,-30 392,-10 372,-10"/>
<text text-anchor="start" x="395.629" y="-15.4" font-family="sans-serif" font-size="14.00" fill="#000000"> &#160;Declarations</text>
<polygon fill="#8dd3c7" stroke="transparent" points="485,-10 485,-30 505,-30 505,-10 485,-10"/>
<text text-anchor="start" x="508.7251" y="-15.4" font-family="sans-serif" font-size="14.00" fill="#000000"> &#160;Module</text>
<polygon fill="#80b1d3" stroke="transparent" points="571,-10 571,-30 591,-30 591,-10 571,-10"/>
<text text-anchor="start" x="594.7812" y="-15.4" font-family="sans-serif" font-size="14.00" fill="#000000"> &#160;Bootstrap</text>
<polygon fill="#fdb462" stroke="transparent" points="668,-10 668,-30 688,-30 688,-10 668,-10"/>
<text text-anchor="start" x="691.6732" y="-15.4" font-family="sans-serif" font-size="14.00" fill="#000000"> &#160;Providers</text>
<polygon fill="#fb8072" stroke="transparent" points="764,-10 764,-30 784,-30 784,-10 764,-10"/>
<text text-anchor="start" x="787.7258" y="-15.4" font-family="sans-serif" font-size="14.00" fill="#000000"> &#160;Exports</text>
<g id="clust1" class="cluster">
<title>cluster_AppModule</title>
<polygon fill="none" stroke="#000000" stroke-dasharray="1,5" points="8,-70 8,-268 298,-268 298,-70 8,-70"/>
</g>
<g id="clust2" class="cluster">
<title>cluster_AppModule_declarations</title>
<polygon fill="none" stroke="#000000" points="16,-78 16,-130 290,-130 290,-78 16,-78"/>
</g>
<g id="clust7" class="cluster">
<title>cluster_AppModule_bootstrap</title>
<polygon fill="none" stroke="#000000" points="97,-208 97,-260 221,-260 221,-208 97,-208"/>
</g>
<g id="clust15" class="cluster">
<title>cluster_TodoModule</title>
<polygon fill="none" stroke="#000000" stroke-dasharray="1,5" points="306,-70 306,-195 1204,-195 1204,-70 306,-70"/>
</g>
<g id="clust16" class="cluster">
<title>cluster_TodoModule_declarations</title>
<polygon fill="none" stroke="#000000" points="574,-78 574,-130 1196,-130 1196,-78 574,-78"/>
</g>
<g id="clust22" class="cluster">
<title>cluster_TodoModule_imports</title>
<polygon fill="none" stroke="#000000" points="458,-78 458,-130 566,-130 566,-78 458,-78"/>
</g>
<g id="clust25" class="cluster">
<title>cluster_TodoModule_providers</title>
<polygon fill="none" stroke="#000000" points="314,-78 314,-130 450,-130 450,-78 314,-78"/>
</g>
<!-- AppComponent -->
<g id="node1" class="node">
<title>AppComponent</title>
<polygon fill="#ffffb3" stroke="#000000" points="281.9399,-122 176.0601,-122 176.0601,-86 281.9399,-86 281.9399,-122"/>
<text text-anchor="middle" x="229" y="-99.8" font-family="Times,serif" font-size="14.00" fill="#000000">AppComponent</text>
</g>
<!-- AppModule -->
<g id="node3" class="node">
<title>AppModule</title>
<polygon fill="#8dd3c7" stroke="#000000" points="200.6571,-187 197.6571,-191 176.6571,-191 173.6571,-187 117.3429,-187 117.3429,-151 200.6571,-151 200.6571,-187"/>
<text text-anchor="middle" x="159" y="-164.8" font-family="Times,serif" font-size="14.00" fill="#000000">AppModule</text>
</g>
<!-- AppComponent&#45;&gt;AppModule -->
<g id="edge1" class="edge">
<title>AppComponent&#45;&gt;AppModule</title>
<path fill="none" stroke="#000000" d="M188.5544,-122.1061C188.5544,-122.1061 188.5544,-140.991 188.5544,-140.991"/>
<polygon fill="#000000" stroke="#000000" points="185.0544,-140.9909 188.5544,-150.991 192.0544,-140.991 185.0544,-140.9909"/>
</g>
<!-- NotfoundComponent -->
<g id="node2" class="node">
<title>NotfoundComponent</title>
<polygon fill="#ffffb3" stroke="#000000" points="158.4902,-122 23.5098,-122 23.5098,-86 158.4902,-86 158.4902,-122"/>
<text text-anchor="middle" x="91" y="-99.8" font-family="Times,serif" font-size="14.00" fill="#000000">NotfoundComponent</text>
</g>
<!-- NotfoundComponent&#45;&gt;AppModule -->
<g id="edge2" class="edge">
<title>NotfoundComponent&#45;&gt;AppModule</title>
<path fill="none" stroke="#000000" d="M137.8335,-122.1061C137.8335,-122.1061 137.8335,-140.991 137.8335,-140.991"/>
<polygon fill="#000000" stroke="#000000" points="134.3335,-140.9909 137.8335,-150.991 141.3335,-140.991 134.3335,-140.9909"/>
</g>
<!-- AppComponent  -->
<g id="node4" class="node">
<title>AppComponent </title>
<polygon fill="#80b1d3" stroke="#000000" points="213.439,-252 104.561,-252 104.561,-216 213.439,-216 213.439,-252"/>
<text text-anchor="middle" x="159" y="-229.8" font-family="Times,serif" font-size="14.00" fill="#000000">AppComponent </text>
</g>
<!-- AppModule&#45;&gt;AppComponent  -->
<g id="edge3" class="edge">
<title>AppModule&#45;&gt;AppComponent </title>
<path fill="none" stroke="#000000" stroke-dasharray="1,5" d="M159,-187.1061C159,-187.1061 159,-205.991 159,-205.991"/>
<polygon fill="#000000" stroke="#000000" points="155.5001,-205.9909 159,-215.991 162.5001,-205.991 155.5001,-205.9909"/>
</g>
<!-- TodoComponent -->
<g id="node5" class="node">
<title>TodoComponent</title>
<polygon fill="#ffffb3" stroke="#000000" points="1188.3851,-122 1077.6149,-122 1077.6149,-86 1188.3851,-86 1188.3851,-122"/>
<text text-anchor="middle" x="1133" y="-99.8" font-family="Times,serif" font-size="14.00" fill="#000000">TodoComponent</text>
</g>
<!-- TodoModule -->
<g id="node10" class="node">
<title>TodoModule</title>
<polygon fill="#8dd3c7" stroke="#000000" points="804.6025,-187 801.6025,-191 780.6025,-191 777.6025,-187 715.3975,-187 715.3975,-151 804.6025,-151 804.6025,-187"/>
<text text-anchor="middle" x="760" y="-164.8" font-family="Times,serif" font-size="14.00" fill="#000000">TodoModule</text>
</g>
<!-- TodoComponent&#45;&gt;TodoModule -->
<g id="edge4" class="edge">
<title>TodoComponent&#45;&gt;TodoModule</title>
<path fill="none" stroke="#000000" d="M1133,-122.2921C1133,-144.2057 1133,-178 1133,-178 1133,-178 814.622,-178 814.622,-178"/>
<polygon fill="#000000" stroke="#000000" points="814.6221,-174.5001 804.622,-178 814.622,-181.5001 814.6221,-174.5001"/>
</g>
<!-- HeaderComponent -->
<g id="node6" class="node">
<title>HeaderComponent</title>
<polygon fill="#ffffb3" stroke="#000000" points="1059.7437,-122 938.2563,-122 938.2563,-86 1059.7437,-86 1059.7437,-122"/>
<text text-anchor="middle" x="999" y="-99.8" font-family="Times,serif" font-size="14.00" fill="#000000">HeaderComponent</text>
</g>
<!-- HeaderComponent&#45;&gt;TodoModule -->
<g id="edge5" class="edge">
<title>HeaderComponent&#45;&gt;TodoModule</title>
<path fill="none" stroke="#000000" d="M999,-122.1061C999,-141.3391 999,-169 999,-169 999,-169 814.6737,-169 814.6737,-169"/>
<polygon fill="#000000" stroke="#000000" points="814.6737,-165.5001 804.6737,-169 814.6737,-172.5001 814.6737,-165.5001"/>
</g>
<!-- ListComponent -->
<g id="node7" class="node">
<title>ListComponent</title>
<polygon fill="#ffffb3" stroke="#000000" points="920.6109,-122 817.3891,-122 817.3891,-86 920.6109,-86 920.6109,-122"/>
<text text-anchor="middle" x="869" y="-99.8" font-family="Times,serif" font-size="14.00" fill="#000000">ListComponent</text>
</g>
<!-- ListComponent&#45;&gt;TodoModule -->
<g id="edge6" class="edge">
<title>ListComponent&#45;&gt;TodoModule</title>
<path fill="none" stroke="#000000" d="M869,-122.027C869,-138.3976 869,-160 869,-160 869,-160 814.649,-160 814.649,-160"/>
<polygon fill="#000000" stroke="#000000" points="814.649,-156.5001 804.649,-160 814.6489,-163.5001 814.649,-156.5001"/>
</g>
<!-- SearchPipe -->
<g id="node8" class="node">
<title>SearchPipe</title>
<polygon fill="#ffffb3" stroke="#000000" points="799.4748,-122 720.5252,-122 720.5252,-86 799.4748,-86 799.4748,-122"/>
<text text-anchor="middle" x="760" y="-99.8" font-family="Times,serif" font-size="14.00" fill="#000000">SearchPipe</text>
</g>
<!-- SearchPipe&#45;&gt;TodoModule -->
<g id="edge7" class="edge">
<title>SearchPipe&#45;&gt;TodoModule</title>
<path fill="none" stroke="#000000" d="M760,-122.1061C760,-122.1061 760,-140.991 760,-140.991"/>
<polygon fill="#000000" stroke="#000000" points="756.5001,-140.9909 760,-150.991 763.5001,-140.991 756.5001,-140.9909"/>
</g>
<!-- DetailsComponent -->
<g id="node9" class="node">
<title>DetailsComponent</title>
<polygon fill="#ffffb3" stroke="#000000" points="702.4846,-122 581.5154,-122 581.5154,-86 702.4846,-86 702.4846,-122"/>
<text text-anchor="middle" x="642" y="-99.8" font-family="Times,serif" font-size="14.00" fill="#000000">DetailsComponent</text>
</g>
<!-- DetailsComponent&#45;&gt;TodoModule -->
<g id="edge8" class="edge">
<title>DetailsComponent&#45;&gt;TodoModule</title>
<path fill="none" stroke="#000000" d="M642,-122.027C642,-138.3976 642,-160 642,-160 642,-160 705.3893,-160 705.3893,-160"/>
<polygon fill="#000000" stroke="#000000" points="705.3893,-163.5001 715.3893,-160 705.3892,-156.5001 705.3893,-163.5001"/>
</g>
<!-- ShareModule -->
<g id="node11" class="node">
<title>ShareModule</title>
<polygon fill="#8dd3c7" stroke="#000000" points="557.9232,-122 554.9232,-126 533.9232,-126 530.9232,-122 466.0768,-122 466.0768,-86 557.9232,-86 557.9232,-122"/>
<text text-anchor="middle" x="512" y="-99.8" font-family="Times,serif" font-size="14.00" fill="#000000">ShareModule</text>
</g>
<!-- ShareModule&#45;&gt;TodoModule -->
<g id="edge9" class="edge">
<title>ShareModule&#45;&gt;TodoModule</title>
<path fill="none" stroke="#000000" d="M512,-122.1061C512,-141.3391 512,-169 512,-169 512,-169 705.3761,-169 705.3761,-169"/>
<polygon fill="#000000" stroke="#000000" points="705.3762,-172.5001 715.3761,-169 705.3761,-165.5001 705.3762,-172.5001"/>
</g>
<!-- TodoService -->
<g id="node12" class="node">
<title>TodoService</title>
<ellipse fill="#fdb462" stroke="#000000" cx="382" cy="-104" rx="60.2537" ry="18"/>
<text text-anchor="middle" x="382" y="-99.8" font-family="Times,serif" font-size="14.00" fill="#000000">TodoService</text>
</g>
<!-- TodoService&#45;&gt;TodoModule -->
<g id="edge10" class="edge">
<title>TodoService&#45;&gt;TodoModule</title>
<path fill="none" stroke="#000000" d="M382,-122.2921C382,-144.2057 382,-178 382,-178 382,-178 705.1541,-178 705.1541,-178"/>
<polygon fill="#000000" stroke="#000000" points="705.1541,-181.5001 715.1541,-178 705.154,-174.5001 705.1541,-181.5001"/>
</g>
</g>
</svg>
